<svg width="42" height="42" viewBox="0 0 42 42" fill="none" xmlns="http://www.w3.org/2000/svg">
  <circle cx="21" cy="12" r="5" fill="url(#paint0_linear)"/>
  <rect x="16" y="18" width="10" height="12" fill="url(#paint1_linear)"/>
  <path d="M11 30C11 28.8954 11.8954 28 13 28H29C30.1046 28 31 28.8954 31 30V32H11V30Z" fill="url(#paint2_linear)"/>
  <path d="M21 1C10.5066 1 2 9.50659 2 20C2 30.4934 10.5066 39 21 39C31.4934 39 40 30.4934 40 20C40 9.50659 31.4934 1 21 1ZM21 37C11.6112 37 4 29.3888 4 20C4 10.6112 11.6112 3 21 3C30.3888 3 38 10.6112 38 20C38 29.3888 30.3888 37 21 37Z" fill="url(#paint3_linear)"/>
  <defs>
    <linearGradient id="paint0_linear" x1="16" y1="7" x2="26" y2="17" gradientUnits="userSpaceOnUse">
      <stop offset="0.259336" stop-color="#FFDB6E"/>
      <stop offset="1" stop-color="#FFBC5E"/>
    </linearGradient>
    <linearGradient id="paint1_linear" x1="16" y1="18" x2="26" y2="30" gradientUnits="userSpaceOnUse">
      <stop offset="0.259336" stop-color="#FFDB6E"/>
      <stop offset="1" stop-color="#FFBC5E"/>
    </linearGradient>
    <linearGradient id="paint2_linear" x1="11" y1="28" x2="31" y2="32" gradientUnits="userSpaceOnUse">
      <stop offset="0.259336" stop-color="#FFDB6E"/>
      <stop offset="1" stop-color="#FFBC5E"/>
    </linearGradient>
    <linearGradient id="paint3_linear" x1="2" y1="1" x2="40" y2="39" gradientUnits="userSpaceOnUse">
      <stop offset="0.259336" stop-color="#FFDB6E"/>
      <stop offset="1" stop-color="#FFBC5E"/>
    </linearGradient>
  </defs>
</svg>